<svg version="1.1" xmlns="http://www.w3.org/2000/svg" xmlns:xlink="http://www.w3.org/1999/xlink" width="512.000000pt" height="512.000000pt" viewBox="0,0,256,256"><g fill="#c8102e" fill-rule="nonzero" stroke="none" stroke-width="1" stroke-linecap="butt" stroke-linejoin="miter" stroke-miterlimit="10" stroke-dasharray="" stroke-dashoffset="0" font-family="none" font-weight="none" font-size="none" text-anchor="none" style="mix-blend-mode: normal"><g transform="scale(0.5,0.5)"><g transform="translate(0,512) scale(0.1,-0.1)"><path d="M404,4389c-18,-20 -19,-43 -22,-358c-2,-185 0,-346 3,-359c3,-12 14,-31 25,-42c18,-18 34,-20 138,-20h118l176,-439l175,-438l-479,-638l-478,-638v-347c0,-336 1,-348 21,-374l20,-26h2459h2459l20,26c20,26 21,38 21,374v347l-478,638l-479,638l175,438l176,439h116c103,0 119,2 138,20c12,11 24,31 27,43c3,12 5,174 3,360l-3,339l-24,19c-23,19 -71,19 -2156,19h-2132zM4580,4010v-240h-2020h-2020v240v240h2020h2020zM4267,3578c-7,-18 -80,-201 -162,-405l-149,-373h-1396h-1396l-149,373c-82,204 -155,387 -162,405l-13,32h1720h1720zM3840,2560l-40,-80h-1240h-1240l-40,80l-40,80h1320h1320zM1136,2489c19,-40 34,-79 31,-88c-2,-9 -135,-213 -296,-454l-291,-437h-135c-74,0 -135,3 -135,7c0,10 774,1042 782,1043c4,0 24,-32 44,-71zM4423,2041c213,-285 387,-521 387,-524c0,-4 -61,-7 -135,-7h-135l-299,448l-298,448l38,77c22,42 43,77 47,77c4,-1 181,-234 395,-519zM4073,1920c147,-220 267,-402 267,-405c0,-3 -335,-5 -744,-5c-855,0 -779,9 -797,-99c-12,-77 -28,-109 -75,-155c-84,-82 -219,-87 -317,-12c-43,33 -87,116 -87,163c0,40 -23,88 -45,97c-9,3 -349,6 -756,6c-406,0 -739,2 -739,5c0,3 120,185 267,405l266,400h1247h1247zM2170,1333c0,-10 13,-45 28,-78c113,-238 438,-298 633,-117c57,52 119,153 119,194c0,17 35,18 975,18h975v-240v-240h-2340h-2340v240v240h975c922,0 975,-1 975,-17z"></path></g></g></g></svg>